<svg xmlns="http://www.w3.org/2000/svg" viewBox="0 0 19.14 19.67"><defs><style>.cls-1{fill:none;stroke:#d1d2d5;stroke-linecap:round;stroke-linejoin:round;stroke-width:1.2px;}</style></defs><g id="Layer_2" data-name="Layer 2"><g id="Layer_1-2" data-name="Layer 1"><path class="cls-1" d="M15.73,10.77c0,.35,0,.68,0,.92a8.37,8.37,0,0,0,2.53,5.68,1,1,0,0,1-.7,1.7h-16a1,1,0,0,1-.7-1.7,8.37,8.37,0,0,0,2.53-5.68c0-.59,0-1.78,0-2.38C3.42,6.67,4.93,2.67,8,2.23H8A1.63,1.63,0,0,1,9.57.6h0A1.63,1.63,0,0,1,11.2,2.23"/></g></g></svg>